<?xml version="1.0" standalone="no"?>
<!DOCTYPE svg PUBLIC "-//W3C//DTD SVG 20010904//EN"
 "http://www.w3.org/TR/2001/REC-SVG-20010904/DTD/svg10.dtd">
<svg version="1.0" xmlns="http://www.w3.org/2000/svg"
 width="1890.000000pt" height="1890.000000pt" viewBox="0 0 1890.000000 1890.000000"
 preserveAspectRatio="xMidYMid meet">
<metadata>
Created by potrace 1.14, written by Peter Selinger 2001-2017
</metadata>
<g transform="translate(0.000000,1890.000000) scale(0.100000,-0.100000)"
fill="#000000" stroke="none">
<path d="M7309 16508 c-12 -17 -27 -21 -85 -23 -46 -2 -86 -10 -119 -25 -99
-44 -140 -65 -164 -82 -13 -10 -32 -18 -42 -18 -15 0 -80 -30 -129 -60 -35
-21 -85 -40 -105 -40 -12 0 -33 -8 -46 -18 -13 -10 -55 -36 -94 -56 -38 -21
-86 -53 -105 -72 -20 -19 -42 -34 -49 -34 -16 0 -102 -59 -119 -82 -7 -10 -21
-18 -31 -18 -10 0 -29 -12 -43 -27 -14 -16 -45 -39 -68 -53 -23 -14 -57 -39
-76 -56 -37 -34 -44 -40 -132 -101 -33 -24 -73 -61 -89 -83 -17 -24 -36 -40
-48 -40 -11 0 -29 -6 -40 -13 -11 -7 -38 -19 -60 -26 -22 -7 -54 -28 -72 -47
-18 -19 -41 -34 -52 -34 -12 0 -31 -10 -43 -22 -11 -11 -46 -34 -77 -50 -31
-16 -63 -38 -71 -47 -9 -10 -27 -24 -40 -31 -14 -7 -34 -21 -45 -32 -90 -84
-192 -154 -254 -173 -36 -11 -85 -47 -122 -91 -19 -21 -37 -40 -41 -42 -16 -7
-204 -135 -218 -148 -8 -8 -35 -31 -59 -51 -25 -21 -58 -50 -74 -65 -17 -16
-35 -28 -41 -28 -6 0 -40 -29 -76 -64 -36 -36 -119 -116 -184 -178 -66 -62
-130 -123 -143 -135 -13 -12 -23 -27 -23 -32 0 -6 -25 -27 -57 -47 -47 -30
-68 -37 -130 -41 -83 -7 -146 9 -278 67 -89 39 -126 52 -165 56 -25 3 -76 14
-115 24 -228 60 -390 64 -575 16 -131 -35 -291 -106 -381 -169 -49 -35 -219
-202 -219 -216 0 -4 -22 -38 -50 -75 -67 -90 -69 -94 -86 -197 -21 -129 -13
-690 10 -734 9 -16 16 -37 16 -45 0 -22 56 -135 75 -150 8 -7 15 -18 15 -24 0
-6 8 -19 18 -27 9 -9 35 -40 57 -69 42 -57 56 -71 130 -135 25 -22 58 -52 73
-67 29 -28 165 -98 192 -98 9 0 25 -7 36 -15 10 -8 26 -15 35 -15 8 0 25 -9
37 -20 11 -11 45 -29 74 -40 69 -27 217 -101 227 -115 5 -5 19 -38 31 -72 22
-61 22 -67 11 -225 -7 -89 -22 -212 -35 -273 -44 -203 -47 -222 -51 -326 -2
-57 -9 -126 -16 -154 -9 -36 -13 -268 -14 -850 -3 -856 -17 -1339 -42 -1388
-8 -16 -21 -90 -29 -165 -15 -141 -28 -227 -45 -297 -5 -22 -14 -80 -20 -130
-19 -177 -40 -300 -56 -330 -8 -16 -17 -61 -19 -100 -1 -38 -8 -101 -13 -140
-15 -97 -32 -504 -31 -720 1 -192 8 -289 34 -480 30 -228 37 -270 51 -310 8
-22 19 -83 25 -135 11 -91 34 -183 51 -205 4 -6 12 -46 18 -90 6 -44 26 -126
46 -183 19 -56 35 -108 35 -115 0 -6 15 -33 33 -59 18 -25 39 -66 46 -90 8
-23 27 -72 43 -108 51 -109 108 -258 108 -281 0 -25 33 -84 119 -212 36 -53
80 -121 98 -150 64 -104 198 -285 225 -305 10 -7 18 -23 18 -35 0 -13 8 -30
18 -39 9 -9 30 -34 46 -57 16 -22 37 -43 47 -46 9 -3 22 -19 29 -35 7 -17 54
-72 105 -123 108 -107 143 -137 162 -137 7 0 82 -67 165 -150 208 -203 205
-200 212 -200 3 0 25 -13 48 -30 22 -16 45 -30 50 -30 5 0 43 -23 84 -51 41
-28 89 -55 105 -61 16 -5 29 -14 29 -19 0 -5 24 -20 53 -33 28 -12 72 -40 97
-61 42 -35 197 -115 224 -115 7 0 38 -16 70 -35 32 -19 68 -35 80 -35 11 0 48
-12 81 -26 33 -14 103 -37 155 -50 111 -29 199 -56 290 -91 36 -14 101 -29
145 -33 44 -4 100 -17 125 -28 28 -13 84 -24 151 -30 73 -7 119 -17 148 -31
41 -21 104 -33 274 -50 60 -7 98 -16 122 -31 32 -20 53 -22 208 -26 378 -10
519 -20 567 -42 42 -19 68 -21 345 -25 l300 -4 6 -29 c13 -60 9 -83 -18 -109
l-28 -25 4587 0 4587 0 0 379 0 379 -32 13 c-18 8 -41 23 -52 34 -11 11 -47
29 -80 39 -33 10 -78 26 -100 36 -153 67 -197 84 -250 95 -33 7 -80 18 -105
24 -159 38 -330 59 -640 78 -107 7 -491 -15 -590 -33 -168 -30 -262 -54 -293
-72 -17 -11 -48 -23 -67 -27 -33 -7 -140 -60 -185 -91 -11 -8 -29 -14 -40 -14
-11 0 -47 -14 -80 -30 -48 -24 -73 -30 -123 -30 -68 0 -88 7 -136 50 -17 15
-68 60 -114 99 -88 75 -132 122 -132 140 0 5 -10 15 -22 22 -26 13 -184 170
-210 209 -26 37 -24 129 3 164 11 14 28 26 38 26 9 0 52 22 94 50 42 27 80 50
85 50 4 0 22 14 40 30 18 17 39 30 45 30 7 0 23 6 37 13 14 8 61 33 105 57 44
23 109 58 145 77 36 19 90 54 120 79 30 24 71 49 90 55 19 6 44 19 55 29 11
10 35 25 53 34 18 10 41 25 51 35 10 10 47 34 82 52 35 19 79 51 99 73 19 21
55 48 80 60 60 28 118 73 125 97 4 10 25 30 49 44 23 13 53 36 67 51 13 14 44
36 69 49 25 13 72 49 105 80 33 31 69 63 81 71 12 8 30 31 40 52 27 53 72 110
92 116 9 4 37 33 61 66 24 34 52 65 62 70 10 6 20 18 23 28 4 10 26 40 51 66
24 27 60 76 79 111 20 34 42 68 51 75 8 7 15 18 15 25 0 8 4 15 9 17 5 2 20
26 35 53 15 28 51 91 81 140 29 50 54 93 54 97 1 4 22 45 47 90 101 181 121
225 128 272 4 27 16 67 26 90 10 23 25 57 33 76 8 19 27 62 42 95 15 33 35 96
46 140 31 136 50 207 75 286 14 45 28 125 34 200 6 68 22 185 35 259 19 104
26 192 32 380 12 373 0 592 -43 785 -8 33 -14 89 -14 124 0 122 -48 442 -75
507 -8 18 -17 49 -21 70 -4 22 -19 66 -34 99 -15 33 -31 85 -34 115 -4 30 -16
75 -27 99 -10 24 -19 52 -19 63 0 11 -11 38 -24 61 -14 23 -28 59 -31 79 -4
21 -13 42 -21 48 -7 7 -18 28 -24 48 -23 72 -65 178 -102 255 -21 43 -38 83
-38 90 0 7 -20 34 -45 61 -24 27 -47 63 -51 80 -6 27 -51 128 -74 166 -12 19
-51 102 -75 157 -9 23 -23 44 -30 47 -7 2 -15 16 -19 31 -9 35 -47 117 -62
132 -16 17 -30 58 -49 148 -23 114 -72 282 -86 301 -5 6 -18 45 -28 87 -11 42
-27 89 -35 106 -9 16 -16 41 -16 54 0 13 -8 35 -19 48 -10 13 -26 51 -35 83
-10 32 -23 68 -31 80 -7 12 -31 76 -53 142 -22 67 -45 130 -51 140 -11 20 -69
172 -130 344 -21 58 -54 134 -73 170 -19 36 -38 78 -42 94 -4 16 -20 58 -37
92 -16 35 -29 66 -29 70 0 3 -9 18 -19 33 -11 15 -23 40 -27 57 -4 16 -22 58
-40 94 -17 36 -35 80 -39 99 -9 41 -36 106 -81 193 -19 36 -34 73 -34 82 0 8
-12 41 -26 73 -27 60 -33 74 -64 128 -10 17 -28 60 -40 96 -13 35 -26 69 -30
74 -4 6 -17 48 -30 95 -12 47 -31 100 -43 119 -22 36 -30 107 -30 251 0 87 25
158 67 185 14 10 26 23 26 30 0 7 31 41 70 76 51 47 75 78 94 120 14 32 33 62
42 67 35 19 99 144 114 220 6 31 23 84 38 117 25 56 27 69 26 185 -1 93 -8
155 -27 240 -14 63 -28 133 -32 155 -14 84 -79 243 -100 245 -13 1 -75 92 -75
111 0 8 -18 28 -41 45 -68 49 -90 67 -134 110 -23 22 -62 49 -88 59 -26 10
-47 21 -47 26 0 4 -13 10 -29 14 -16 3 -37 15 -47 26 -9 10 -24 19 -32 19 -9
0 -43 11 -76 24 -36 14 -101 28 -161 35 -55 5 -125 17 -155 26 -86 24 -198 20
-266 -10 -31 -14 -65 -25 -76 -25 -44 0 -144 -33 -178 -58 -44 -34 -65 -47
-115 -72 -38 -19 -274 -216 -344 -287 -18 -18 -37 -33 -42 -33 -5 0 -23 -10
-39 -22 -26 -19 -37 -20 -117 -15 -96 7 -160 22 -183 42 -8 7 -39 20 -68 29
-30 8 -68 24 -85 34 -18 11 -50 23 -72 27 -36 6 -104 34 -240 100 -27 13 -88
38 -135 56 -47 18 -97 41 -112 51 -19 13 -45 18 -96 18 -52 0 -75 5 -93 18
-33 25 -75 39 -135 46 -28 4 -70 15 -93 27 -23 11 -78 26 -120 34 -43 7 -96
21 -117 30 -22 10 -78 19 -129 22 -74 4 -101 11 -150 35 -53 27 -71 31 -160
33 -74 1 -114 8 -155 24 -30 11 -72 21 -93 21 -24 0 -40 5 -43 15 -5 13 -206
15 -1728 15 l-1721 -1 -16 -21z"/>
</g>
</svg>
